<svg id="Capa_1" enable-background="new 0 0 512 512" height="512" viewBox="0 0 512 512" width="512" xmlns="http://www.w3.org/2000/svg"><g><g><g><path d="m391.753 169.924-23.223-2.369c-11.232-1.146-21.348 6.358-23.74 17.116h-6.56l1.108-10.864c1.235-12.108-7.579-22.926-19.688-24.161l-23.223-2.369c-4.766-.486-9.328.59-13.189 2.805l15.798-97.218c2.986-18.376-9.49-35.694-27.867-38.681-18.377-2.986-35.694 9.49-38.681 27.867l-23.175 142.62h-9.552l-23.176-142.621c-2.986-18.376-20.304-30.853-38.68-27.867-18.376 2.986-30.853 20.304-27.867 38.681l30.099 185.223.619 2.36h-21.402c-20.075 0-36.349 16.274-36.349 36.349v20.897c0 5.759 2.12 11.019 5.616 15.055l18.143 62.705c6.845 29.436 31.815 54.036 62.318 58.086v78.003h160.743v-80.637c27.811-8.83 47.967-34.85 47.967-65.585l2.579-56.71c11.889-4.222 20.911-14.971 22.277-28.357l8.791-86.166c1.237-12.11-7.578-22.927-19.686-24.162z" fill="#efc5b4"/></g><g><path d="m391.753 169.924-13.112-1.338c7.944 1.219 13.434 9.773 12.317 19.391l-8.099 69.759c-1.741 14.995-13.31 25.971-25.841 24.517-11.298-1.312-19.517-12.283-19.749-25.419l-1.691 16.575c-1.09 10.684 2.942 20.704 10.099 27.639-3.428-2.497-6.578-5.453-9.316-8.766-3.074-3.721-5.378-8.755-8.986-11.59-7.802 2.379-15.315 5.711-23.491 6.664-7.961.928-16.695-.488-23.645-4.652-21.161-12.68-15.97-42.919-13.23-63.238 3.451-25.587.207-54.969 23.38-71.684l8.646-94.919c2.986-18.376-9.49-35.694-27.867-38.681-3.307-.537-6.577-.567-9.738-.158 4.439 6.628 6.564 15.188 5.284 24.015l-17.687 201.036c-.028.322-.027.637-.027.952-2.848 18.773-4.996 44.962 6.946 58.368 11.409 12.807 38.326 12.688 57.178 17.829 6.763 1.845 10.452 14.756 10.452 14.756 0 23.672-9.1 43.994-26.067 55.192-7.385 4.874-11.705 13.242-11.705 22.091v103.277h44.02v-80.637c27.811-8.83 47.967-34.85 47.967-65.585l2.579-56.71c11.889-4.222 20.912-14.971 22.277-28.357l8.791-86.166c1.238-12.109-7.577-22.926-19.685-24.161z" fill="#d994b3"/></g><g><path d="m420.976 2.921 8.26 23.225c.354.994 1.054 1.782 1.937 2.18l20.634 9.297c2.915 1.313 2.915 5.958 0 7.271l-20.634 9.297c-.884.398-1.584 1.186-1.937 2.18l-8.26 23.225c-1.167 3.281-5.293 3.281-6.46 0l-8.26-23.225c-.354-.994-1.054-1.782-1.937-2.18l-20.634-9.297c-2.915-1.313-2.915-5.958 0-7.271l20.634-9.297c.884-.398 1.584-1.186 1.937-2.18l8.26-23.225c1.167-3.281 5.293-3.281 6.46 0z" fill="#f0c6b5"/></g><g><path d="m487.508 124.31 6.127 17.228c.262.738.782 1.322 1.437 1.617l15.306 6.896c2.162.974 2.162 4.42 0 5.394l-15.306 6.896c-.655.295-1.175.88-1.437 1.617l-6.127 17.228c-.866 2.434-3.927 2.434-4.792 0l-6.127-17.228c-.262-.738-.782-1.322-1.437-1.617l-15.306-6.896c-2.162-.974-2.162-4.42 0-5.394l15.306-6.896c.655-.295 1.175-.88 1.437-1.617l6.127-17.228c.866-2.434 3.927-2.434 4.792 0z" fill="#f0c6b5"/></g><g><ellipse cx="18.035" cy="179.101" fill="#e9a385" rx="18.035" ry="18.035" transform="matrix(.161 -.987 .987 .161 -161.632 168.05)"/></g><g><ellipse cx="385.454" cy="90.601" fill="#e9a385" rx="7.78" ry="7.78" transform="matrix(.924 -.383 .383 .924 -5.331 154.403)"/></g></g><g><path d="m414.395 171.576c-5.415-6.646-13.094-10.785-21.622-11.655l-23.223-2.37c-7.577-.772-15.007 1.12-21.229 5.342-1.174-4.186-3.199-8.126-6.028-11.598-5.415-6.646-13.094-10.785-21.623-11.655l-23.223-2.369c-.643-.066-1.282-.106-1.919-.133l13.433-82.664c3.87-23.819-12.359-46.347-36.179-50.219-11.54-1.875-23.117.856-32.602 7.689s-15.741 16.951-17.616 28.49l-18.027 110.936-18.027-110.934c-3.871-23.82-26.402-40.05-50.219-36.179-23.819 3.871-40.049 26.399-36.179 50.219l28.586 175.915h-7.655c-26.519 0-48.094 20.059-48.094 44.715 0 .348.018.696.054 1.042l3.273 31.401c.023.226.055.452.094.677.04.23.989 5.686 2.125 10.989 1.118 5.218 14.327 45.906 18.578 58.952 7.399 31.053 32.179 56.111 61.953 63.655v59.538c0 5.553 4.502 10.055 10.055 10.055s10.055-4.502 10.055-10.055v-67.823c0-5.042-3.734-9.304-8.732-9.968-25.594-3.398-47.737-24.121-53.847-50.396-.066-.283-.144-.562-.234-.838-8.232-25.258-17.397-53.943-18.165-57.334-.901-4.205-1.701-8.665-1.918-9.888l-3.177-30.485c.3-14.918 14.662-24.128 27.979-24.128h75.566c14.969 0 27.148 12.178 27.148 27.147v5.853c0 14.969-12.178 27.148-27.148 27.148h-42.316c-5.553 0-10.055 4.502-10.055 10.055s4.502 10.055 10.055 10.055h33.444c3.292 3.508 6.139 7.476 8.449 11.844 6.807 12.868 8.197 27.615 3.911 41.528-1.634 5.307 1.343 10.935 6.65 12.57.986.303 1.983.448 2.964.448 4.297 0 8.275-2.776 9.606-7.097 5.866-19.046 3.965-39.236-5.354-56.852-.861-1.628-1.778-3.216-2.745-4.762 18.928-6.169 32.649-23.975 32.649-44.936v-5.853c0-26.058-21.2-47.257-47.258-47.257h-47.537l-29.11-179.14c-2.092-12.875 6.68-25.051 19.555-27.143 12.878-2.095 25.051 6.681 27.143 19.555l23.176 142.622c.791 4.867 4.994 8.442 9.925 8.442h9.552c4.931 0 9.134-3.575 9.925-8.442l23.176-142.622c2.092-12.875 14.266-21.649 27.143-19.555 12.874 2.092 21.646 14.269 19.554 27.143l-15.117 93.027c-6.407 5.193-10.831 12.832-11.732 21.666l-8.79 86.166c-1.187 11.629 2.227 23.025 9.611 32.088 7.385 9.062 17.856 14.706 29.486 15.893 1.514.155 3.022.231 4.524.231 10.032 0 19.681-3.419 27.564-9.842.789-.643 1.543-1.318 2.28-2.007 4.679 16.874 19.293 30.016 37.735 31.897 1.514.155 3.022.231 4.524.231.189 0 .378-.01.567-.012l-2.014 44.273c-.007.152-.01.305-.01.457 0 25.719-16.458 48.224-40.955 56.001-4.176 1.326-7.012 5.203-7.012 9.584v70.457c0 5.553 4.502 10.055 10.055 10.055s10.055-4.502 10.055-10.055v-63.465c28.904-12.245 47.874-40.433 47.967-72.341l2.289-50.334c2.313-1.273 4.531-2.759 6.622-4.462 9.063-7.385 14.707-17.856 15.893-29.486l8.791-86.166c.871-8.529-1.632-16.886-7.048-23.531zm-93.851 87.376c-.641 6.285-3.692 11.945-8.59 15.937-4.898 3.991-11.056 5.835-17.344 5.195-6.286-.642-11.946-3.692-15.937-8.59s-5.836-11.058-5.195-17.344l8.79-86.165c.629-6.162 5.847-10.768 11.913-10.768.405 0 .814.021 1.225.062l23.222 2.369c3.184.325 6.052 1.871 8.074 4.352s2.956 5.602 2.632 8.785zm80.894-65.888-8.791 86.167c-.641 6.285-3.692 11.945-8.59 15.937-4.898 3.991-11.057 5.836-17.344 5.195-12.976-1.324-22.456-12.958-21.132-25.934l8.791-86.167c.325-3.184 1.871-6.051 4.352-8.073 2.158-1.759 4.8-2.695 7.547-2.695.411 0 .824.021 1.238.063l23.223 2.369c3.184.325 6.052 1.871 8.074 4.352 2.022 2.482 2.956 5.602 2.632 8.786z" fill="#3c122c"/></g><g fill="#fff"><path d="m177.85 291.469h-16.379c-5.523 0-10-4.477-10-10s4.477-10 10-10h16.379c5.523 0 10 4.477 10 10s-4.477 10-10 10z"/><path d="m127.678 291.469h-4.175c-5.523 0-10-4.477-10-10s4.477-10 10-10h4.175c5.523 0 10 4.477 10 10s-4.477 10-10 10z"/></g></g></svg>