<?xml version="1.0" encoding="iso-8859-1"?>
<!-- Generator: Adobe Illustrator 19.0.0, SVG Export Plug-In . SVG Version: 6.00 Build 0)  -->
<svg version="1.1" id="Capa_1" xmlns="http://www.w3.org/2000/svg" xmlns:xlink="http://www.w3.org/1999/xlink" x="0px" y="0px"
	 viewBox="0 0 512 512" style="enable-background:new 0 0 512 512;" xml:space="preserve">
<path style="fill:#F79E8C;" d="M98.5,132.5c-16.569,0-30,13.431-30,30s13.431,30,30,30h40v-60H98.5z"/>
<path style="fill:#FF836B;" d="M368.5,132.5h-40v60h40c16.569,0,30-13.431,30-30S385.069,132.5,368.5,132.5z"/>
<path style="fill:#F79E8C;" d="M307.21,31.54c-1,5.28-70.43-4.83-72.48,0v285.52c68.47-0.65,123.77-56.36,123.77-124.99V132.5
	C358.5,91.03,338.31,54.27,307.21,31.54z"/>
<path style="fill:#FBCFC6;" d="M302.61,46.73L160.05,32.62l-0.62-0.82c-30.88,22.76-50.93,59.38-50.93,100.7v59.57
	c0,69.04,55.96,125,125,125c0.41,0,0.82,0,1.23-0.01c51.9-0.87,93.77-56.49,93.77-124.99V132.5
	C328.5,99.29,318.66,69.11,302.61,46.73z"/>
<path style="fill:#202833;" d="M307.21,31.54c-1,5.28-2.55,10.36-4.6,15.19L234.73,7.51C261.82,7.77,286.85,16.65,307.21,31.54z"/>
<path style="fill:#F76549;" d="M253.5,192.5l-20,50c27.615,0,50-22.386,50-50H253.5z"/>
<path style="fill:#FF836B;" d="M253.5,192.5h-70c0,27.614,22.385,50,50,50C244.546,242.5,253.5,220.114,253.5,192.5z"/>
<path style="fill:#414851;" d="M234.73,7.51c26.74,0.45,50.82,15.43,67.88,39.22c-11.38,26.9-38.03,45.77-69.08,45.77
	c-36.25,0-66.49-25.71-73.48-59.88l-0.62-0.82c20.74-15.28,46.35-24.3,74.07-24.3C233.91,7.5,234.32,7.5,234.73,7.51z"/>
<polygon style="fill:#FFFC5A;" points="294.5,347.5 324.5,426.5 142.5,426.5 172.5,347.5 "/>
<rect x="142.5" y="385.5" style="fill:#ABFFF9;" width="182" height="71"/>
<polygon style="fill:#56EBE0;" points="324.5,415.5 294.5,504.5 172.5,504.5 142.5,415.5 "/>
<polygon style="fill:#27414B;" points="354.5,347.5 384.5,456.5 294.5,456.5 324.5,347.5 "/>
<polygon style="fill:#325D63;" points="294.5,347.5 294.5,416.24 324.5,446.24 324.5,347.5 "/>
<polygon style="fill:#439292;" points="384.5,416.24 354.5,504.5 324.5,504.5 304.5,460.37 324.5,416.24 "/>
<rect x="294.5" y="416.24" style="fill:#55C7C2;" width="30" height="88.26"/>
<polygon style="fill:#325D63;" points="112.5,347.5 82.5,456.5 172.5,456.5 142.5,347.5 "/>
<polygon style="fill:#27414B;" points="172.5,347.5 172.5,415.5 142.5,445.5 142.5,347.5 "/>
<polygon style="fill:#55C7C2;" points="82.5,415.5 112.5,504.5 142.5,504.5 162.5,460 142.5,415.5 "/>
<rect x="142.5" y="415.5" style="fill:#439292;" width="30" height="89"/>
<polygon style="fill:#FFFC5A;" points="354.5,347.5 354.5,504.5 399.5,504.5 399.5,416.24 "/>
<polygon style="fill:#A4A6AA;" points="459.5,416.24 459.5,504.5 429.5,504.5 399.5,386.24 "/>
<polygon style="fill:#C5C6C8;" points="429.5,386.24 429.5,504.5 399.5,504.5 399.5,416.24 "/>
<path style="fill:#A4A6AA;" d="M459.5,278.76v98.74l45-30C504.5,316.75,485.98,290.33,459.5,278.76z"/>
<path style="fill:#C5C6C8;" d="M474.5,347.5h30c0,30.75-18.52,57.17-45,68.74h-30L474.5,347.5z"/>
<path style="fill:#E2E3E3;" d="M399.5,347.5v-68.74c-26.48,11.57-45,37.99-45,68.74s18.52,57.17,45,68.74h30
	c26.48-11.57,45-37.99,45-68.74H399.5z"/>
<path style="fill:#FFFC5A;" d="M112.5,426.5v78H7.5v-52c0-57.99,47.01-105,105-105V426.5z"/>
<path d="M462.503,271.887c-2.318-1.015-4.993-0.79-7.11,0.596c-2.118,1.386-3.394,3.746-3.394,6.276V340h-45v-61.241
	c0-2.53-1.276-4.891-3.394-6.276c-2.118-1.386-4.792-1.61-7.11-0.596c-27.756,12.131-46.432,38.358-49.142,68.113H112.5
	C50.467,340,0,390.468,0,452.5v52c0,4.143,3.358,7.5,7.5,7.5h452c4.142,0,7.5-3.357,7.5-7.5v-83.515
	c27.494-14.035,45-42.358,45-73.485C512,314.708,492.571,285.028,462.503,271.887z M467,291.375
	c16.478,11.012,27.363,28.799,29.575,48.625H467V291.375z M392,497h-30V394.915c7.606,10.827,17.82,19.853,30,26.071V497z
	 M180,393.74h107v15H180V393.74z M302,355h45v53.74h-45V355z M287,378.74H180V355h107V378.74z M165,408.74h-45V355h45V408.74z
	 M120,423.74h45v50.76c0,4.143,3.358,7.5,7.5,7.5s7.5-3.357,7.5-7.5v-50.76h107v50.76c0,4.143,3.358,7.5,7.5,7.5s7.5-3.357,7.5-7.5
	v-50.76h45V497H120V423.74z M15,452.5c0-51.238,39.729-93.372,90-97.214V497H15V452.5z M456.497,409.369
	c-2.731,1.193-4.497,3.892-4.497,6.872V497h-45v-80.759c0-2.98-1.765-5.679-4.497-6.872C377.898,398.615,362,374.33,362,347.5
	c0-22.789,11.468-43.74,30-56.125V347.5c0,4.143,3.358,7.5,7.5,7.5h97.083C493.929,378.782,478.785,399.628,456.497,409.369z"/>
<path d="M98.5,200h2.744c4.116,69.382,61.858,124.57,132.256,124.57S361.64,269.382,365.756,200h2.744
	c20.678,0,37.5-16.822,37.5-37.5S389.178,125,368.5,125h-2.717c-2.271-40.486-22.798-76.173-53.467-98.942
	c-0.437-0.407-0.923-0.765-1.454-1.061C289.08,9.277,262.354,0,233.5,0c-28.487,0-55.634,8.904-78.505,25.751
	C123.207,49.166,103.468,85.841,101.22,125H98.5C77.822,125,61,141.822,61,162.5S77.822,200,98.5,200z M391,162.5
	c0,12.406-10.093,22.5-22.5,22.5H366v-45h2.5C380.907,140,391,150.094,391,162.5z M298.764,34.841
	C291.009,64.173,264.312,85,233.526,85c-30.666,0-57.522-20.912-65.26-50.232C187.591,21.824,210.028,15,233.5,15
	C257.631,15,280.084,22.316,298.764,34.841z M155.574,44.57c11.36,32.676,42.591,55.43,77.952,55.43
	c35.501,0,66.554-22.667,77.914-55.348C335.691,66.192,351,97.589,351,132.5v59.57c0,64.79-52.71,117.5-117.5,117.5
	S116,256.86,116,192.07V132.5C116,98.888,130.624,66.75,155.574,44.57z M98.5,140h2.5v45h-2.5C86.093,185,76,174.906,76,162.5
	S86.093,140,98.5,140z"/>
<path d="M233.5,250c31.706,0,57.5-25.794,57.5-57.5c0-4.143-3.358-7.5-7.5-7.5h-100c-4.142,0-7.5,3.357-7.5,7.5
	C176,224.206,201.794,250,233.5,250z M275.337,200c-3.553,19.87-20.962,35-41.837,35s-38.285-15.13-41.837-35H275.337z"/>
<g>
</g>
<g>
</g>
<g>
</g>
<g>
</g>
<g>
</g>
<g>
</g>
<g>
</g>
<g>
</g>
<g>
</g>
<g>
</g>
<g>
</g>
<g>
</g>
<g>
</g>
<g>
</g>
<g>
</g>
</svg>
