<svg id="Capa_1" enable-background="new 0 0 512.001 512.001" height="512" viewBox="0 0 512.001 512.001" width="512" xmlns="http://www.w3.org/2000/svg"><g><path d="m467.069 93.75-197.762 197.762-48.82-48.82 197.762-197.762 31.38 17.44z" fill="#596c76"/><path d="m467.069 93.75-197.762 197.762-24.41-24.41 204.732-204.732z" fill="#465a61"/><path d="m501.889 58.93-34.82 34.82-24.41-24.41-24.41-24.41 34.82-34.82c13.48-13.48 35.34-13.48 48.82 0s13.48 35.34 0 48.82z" fill="#465a61"/><path d="m501.889 58.93-34.82 34.82-24.41-24.41 59.23-59.23c13.48 13.48 13.48 35.34 0 48.82z" fill="#293939"/><path d="m263.499 422.05-32.87 32.87-86.78-86.77-86.8-86.8 32.87-32.87c47.86-47.85 125.72-47.85 173.58 0l.01.01c47.83 47.85 47.83 125.71-.01 173.56z" fill="#ff7b49"/><path d="m263.499 422.05-32.87 32.87-86.78-86.77 119.66-119.66c47.83 47.85 47.83 125.71-.01 173.56z" fill="#f8465e"/><path d="m153.969 358.03-.01-.01-108.7-108.7-32.02 32.03c-17.65 17.65-17.65 46.37 0 64.03l76.69 76.69 76.67 76.66c17.11 17.14 45.87 18.16 63.81.23l32.24-32.25z" fill="#fc6"/><path d="m262.649 466.71-32.24 32.25c-17.94 17.93-46.7 16.91-63.81-.23l-76.67-76.66 64.04-64.04z" fill="#f93"/></g></svg>