<svg id="Capa_1" enable-background="new 0 0 512 512" height="512" viewBox="0 0 512 512" width="512" xmlns="http://www.w3.org/2000/svg"><g><g><path d="m476.813 283.24-19.391-1.696 21.809-134.897c2.291-14.906-8.095-28.79-23.04-30.803-14.75-1.986-28.318 8.362-30.304 23.112l-4.088-20.442c1.291-14.758-9.626-27.768-24.384-29.059s-27.768 9.626-29.059 24.384l-2.434 26.608c1.237-14.143-9.225-26.612-23.368-27.848-14.143-1.237-26.611 9.225-27.849 23.368l-2.862 29.818c.521-13.068-9.65-24.084-22.718-24.605s-24.084 9.65-24.605 22.718l-2.189 54.906h-12.666l-2.189-54.906c-.521-13.068-11.537-23.239-24.605-22.718s-23.239 11.537-22.718 24.605l-2.863-29.818c-1.237-14.143-13.705-24.605-27.849-23.368-14.143 1.237-24.605 13.705-23.368 27.848l-2.434-26.608c-1.291-14.757-14.301-25.675-29.059-24.384-14.758 1.291-25.675 14.301-24.384 29.059l-4.088 20.442c-1.986-14.75-15.554-25.098-30.304-23.112-14.946 2.012-25.332 15.897-23.041 30.803l21.809 134.897-19.391 1.696c-15.21 1.331-26.462 14.74-25.131 29.95l26.497 80.483c7.656 23.434 29.696 41.651 54.772 42.773l6.426 71.811h133.045l-9.029-85.379c18.801-7.831 32.142-25.493 34.236-46.075 2.095 20.582 15.435 38.244 34.236 46.075l-9.029 85.379h133.046l6.426-71.811c25.076-1.122 47.117-19.339 54.772-42.773l26.497-80.483c1.33-15.211-9.922-28.619-25.132-29.95z" fill="#a07575"/><path d="m250.585 395.715c-10.174-10.619-19.86-21.726-29.075-33.255-18.195-22.762-34.639-46.804-50.449-71.258-2.357 1.79-4.696 3.605-7.021 5.441-17.083 16.516-31.943 35.481-49.666 51.367 10.424 46.127 53.674 82.942 109.402 93.906l-2.013-19.038c12.686-5.284 22.882-15.049 28.822-27.163z" fill="#925873"/><path d="m394.422 340.988c-8.342-7.432-16.633-14.799-25.383-21.763-10.166-8.09-20.537-15.973-30.541-24.268-15.064 23.159-30.749 45.908-48.011 67.503-9.216 11.529-18.902 22.635-29.075 33.255 5.939 12.113 16.136 21.879 28.823 27.163l-2.013 19.038c57.154-11.245 101.207-49.673 110.161-97.458-1.352-1.156-2.672-2.322-3.961-3.47z" fill="#925873"/><ellipse cx="257.151" cy="257.797" fill="#c1e5ef" rx="130.003" ry="130.003" transform="matrix(.707 -.707 .707 .707 -106.972 257.34)"/><g fill="#a1e8c3"><path d="m286.134 380.939c-24.828-39.433-68.643-32.131-77.406-39.433-12.805-10.671 9.348-31.497-5.842-41.624-21.907-14.605-62.07 9.493-62.07 9.493s7.763 39.049 52.404 62.262c44.639 23.213 92.914 9.302 92.914 9.302z"/><path d="m135.713 255.845c47.765-3.834 59.456-16.328 60.462-33.825 1.007-17.497-42.148-30.22-42.148-30.22s-16.757 1.872-22.113 25.68c-5.357 23.808 3.799 38.365 3.799 38.365z"/><path d="m377.142 286.302c-33.431 15.904-101.208 24.686-108.775-13.954-2.583-13.19 7.876-37.681 12.036-43.445 6.363-8.817 6.884-22.26-7.713-25.329-9.578-2.013-22.773-2.703-28.157-17.985-10.329-29.32 41.558-51.271 41.558-51.271s41.6-.202 80.549 53.071c38.949 53.272 10.502 98.913 10.502 98.913z"/></g><path d="m127.683 246.038c-.347 3.874-.535 7.794-.535 11.759 0 20.596 4.797 40.07 13.324 57.376 4.196-3.28 8.827-6.144 13.349-9.068-14.374-16.383-23.86-37.159-26.138-60.067z" fill="#a6aaed"/><path d="m225.336 342.35c-28.456-2.437-53.731-15.974-71.516-36.245-4.521 2.923-9.153 5.788-13.349 9.068 21.196 43.022 65.477 72.627 116.68 72.627 11.235 0 22.138-1.426 32.536-4.106-16.615-20.056-39.389-32.513-64.351-41.344z" fill="#85adc2"/><path d="m257.151 127.793c-3.964 0-7.885.188-11.758.535 54.304 5.4 96.715 51.219 96.715 106.945 0 24.682-8.325 47.416-22.313 65.56 22.759 1.805 46.229-5.318 65.049-18.525 1.515-7.939 2.311-16.132 2.311-24.512-.001-71.798-58.205-130.003-130.004-130.003z" fill="#85adc2"/><path d="m319.794 300.834c-19.653 25.492-50.489 41.919-85.167 41.919-3.131 0-6.228-.141-9.291-.403 24.962 8.831 47.736 21.288 64.351 41.344 48.297-12.445 85.723-51.95 95.156-101.385-18.82 13.206-42.29 20.329-65.049 18.525z" fill="#a6aaed"/><path d="m221.156 25.296 6.381 17.943c.273.768.814 1.377 1.497 1.685l15.942 7.182c2.252 1.015 2.252 4.603 0 5.618l-15.942 7.182c-.683.308-1.223.916-1.497 1.685l-6.381 17.943c-.901 2.535-4.09 2.535-4.991 0l-6.381-17.943c-.273-.768-.814-1.377-1.497-1.685l-15.942-7.182c-2.252-1.015-2.252-4.603 0-5.618l15.942-7.182c.682-.308 1.223-.916 1.497-1.685l6.381-17.943c.901-2.535 4.09-2.535 4.991 0z" fill="#ccf3e2"/><circle cx="79.915" cy="32.908" fill="#a1e8c3" r="8.103"/><circle cx="310.542" cy="20.107" fill="#a1e8c3" r="17.95"/></g><g><path d="m501.391 285.794c-6.998-7.253-16.867-11.925-27.077-12.818l-4.319-.378 19.128-124.43c1.52-9.886-.943-19.742-6.934-27.751-5.991-8.01-14.75-13.156-24.662-14.49-9.442-1.271-18.544 1.159-25.839 6.179-1.895-17.08-15.639-31.065-33.399-32.619-18.495-1.621-35.035 10.79-39.095 28.384-4.709-2.937-10.077-4.743-15.766-5.241-16.722-1.462-31.785 8.905-36.935 24.142-15.354-5.801-31.981-8.986-49.34-8.986-18.133 0-35.472 3.466-51.39 9.77-4.893-15.664-20.185-26.411-37.191-24.925-5.689.498-11.057 2.304-15.766 5.241-4.06-17.594-20.604-29.993-39.095-28.384-17.761 1.552-31.504 15.533-33.401 32.612-7.294-5.013-16.397-7.445-25.84-6.174-9.913 1.334-18.671 6.48-24.662 14.49-5.991 8.009-8.454 17.865-6.934 27.751l19.128 124.43-4.319.378c-22.504 1.968-39.327 20.62-37.555 41.605 1.146 16.693 13.038 46.942 23.532 73.636 1.226 3.121 2.423 6.165 3.591 9.159 10.14 25.475 31.073 43.543 54.808 48.04l4.837 55.293c.456 5.209 4.825 9.136 9.958 9.136.292 0 .587-.013.884-.039 5.506-.482 9.579-5.336 9.097-10.842l-5.546-63.389c-.437-4.999-4.509-8.901-9.522-9.125-19.423-.869-37.448-15.187-45.895-36.411-1.149-2.945-2.352-6.006-3.586-9.145-8.988-22.862-21.297-54.173-22.195-67.738-.004-.071-.01-.141-.016-.212-.983-11.24 9.279-19.148 19.351-20.029l61.409-5.372c5.415-.473 10.685 1.189 14.848 4.681 4.162 3.493 6.715 8.397 7.188 13.809l.416 4.757c.474 5.413-1.189 10.686-4.681 14.848s-8.396 6.715-13.809 7.188l-34.389 3.009c-5.506.482-9.579 5.336-9.097 10.842s5.325 9.584 10.842 9.097l26.384-2.308c2.574 2.39 4.874 5.11 6.831 8.137 6.185 9.568 8.274 20.972 5.882 32.111-1.16 5.404 2.279 10.725 7.683 11.885.709.152 1.415.225 2.111.225 4.616 0 8.766-3.213 9.774-7.908 3.515-16.366.446-33.121-8.641-47.179-.429-.664-.87-1.316-1.321-1.96 4.966-2.443 9.419-5.907 13.084-10.274 1.729-2.06 3.231-4.258 4.498-6.562 21.663 34.561 57.985 59.036 100.19 64.639-4.925 7.425-12.02 13.44-20.713 17.06-4.077 1.698-6.559 5.867-6.108 10.26l7.852 76.503c.529 5.151 4.875 8.987 9.943 8.987.342 0 .687-.018 1.034-.053 5.498-.564 9.498-5.479 8.933-10.977l-7.138-69.547c9.766-5.432 17.779-13.125 23.565-22.22 5.784 9.097 13.803 16.787 23.57 22.22l-7.138 69.547c-.564 5.498 3.435 10.413 8.933 10.977.347.036.692.053 1.034.053 5.067 0 9.414-3.836 9.943-8.987l7.852-76.503c.451-4.393-2.031-8.562-6.108-10.26-8.589-3.577-15.613-9.495-20.53-16.799 42.334-4.963 78.953-28.881 101.115-63.019 1.011 1.623 2.139 3.188 3.39 4.68 3.669 4.372 8.128 7.838 13.101 10.282-.452.645-.908 1.286-1.338 1.951-9.087 14.058-12.156 30.813-8.641 47.179 1.008 4.696 5.158 7.908 9.774 7.908.696 0 1.403-.073 2.111-.225 5.404-1.16 8.844-6.482 7.683-11.885-2.392-11.139-.303-22.543 5.882-32.111 1.958-3.029 4.264-5.745 6.841-8.136l26.373 2.307c5.512.486 10.36-3.591 10.841-9.097.482-5.506-3.591-10.36-9.097-10.842l-34.389-3.009c-5.413-.474-10.317-3.026-13.809-7.188s-5.155-9.435-4.681-14.848l.416-4.755c.083-.953.254-1.883.464-2.799.413-1.2.813-2.406 1.194-3.621 1.239-2.821 3.101-5.35 5.531-7.389 4.162-3.493 9.436-5.155 14.847-4.681l61.409 5.372c5.469.478 10.725 2.948 14.418 6.777 2.548 2.641 5.472 7.083 4.932 13.252-.006.07-.012.141-.016.212-.898 13.566-13.207 44.877-22.195 67.739-1.234 3.138-2.437 6.199-3.56 9.079-8.474 21.289-26.499 35.607-45.921 36.476-5.013.225-9.084 4.127-9.522 9.125l-5.545 63.389c-.482 5.506 3.591 10.36 9.097 10.842.297.026.591.039.884.039 5.133 0 9.503-3.927 9.958-9.136l4.837-55.293c23.736-4.497 44.671-22.572 54.834-48.105 1.142-2.928 2.338-5.972 3.565-9.092 10.495-26.695 22.386-56.944 23.532-73.637.9-10.632-2.818-20.851-10.476-28.787zm-126.451-5.072c-.126.05-.253.098-.378.157-25.238 12.006-66.115 17.881-86.74 7.49-7.614-3.836-12.051-9.454-13.563-17.176-2.16-11.029 7.364-33.722 11.013-38.778 5.182-7.181 6.751-15.905 4.095-22.767-2.365-6.111-7.85-10.355-15.442-11.951-1.103-.232-2.253-.448-3.432-.668-8.568-1.603-16.661-3.117-20.296-13.436-6.985-19.828 25.329-37.472 35.351-42.389 52.505 12.789 91.599 60.207 91.599 116.592-.001 7.84-.765 15.503-2.207 22.926zm-33.258-158.153c8.623.754 15.025 8.384 14.271 17.007l-1.54 17.61c-8.81-8.52-18.732-15.894-29.524-21.886 1.471-7.832 8.698-13.44 16.793-12.731zm-171.367 0c8.506-.742 16.038 5.484 16.961 13.936-10.834 6.265-20.752 13.942-29.508 22.774l-1.723-19.703c-.756-8.623 5.647-16.253 14.27-17.007zm-17.074 75.268c16.084 4.92 37.407 15.702 36.939 23.839-.473 8.231-1.353 23.452-52.744 27.997 1.262-18.781 6.859-36.393 15.805-51.836zm-54.149 69.767-37.056 3.242-.14-.567-19.24-125.153c-.696-4.532.432-9.05 3.179-12.721 2.747-3.672 6.762-6.031 11.306-6.643 9.264-1.247 17.805 5.272 19.042 14.461l13.905 109.016c.678 5.318 5.415 9.163 10.77 8.706l1.497-.126c2.649-.224 5.101-1.493 6.813-3.528 1.712-2.034 2.544-4.667 2.313-7.316l-11.314-129.331c-.808-9.237 6.049-17.409 15.287-18.218 9.243-.809 17.409 6.05 18.218 15.287l5.878 67.189c-14.17 21.881-22.408 47.943-22.408 75.896 0 4.24.2 8.432.571 12.576-5.831-2.36-12.173-3.334-18.621-2.77zm50.688 43.725c13.108-6.562 36.712-15.159 49.775-6.451 3.723 2.482 3.575 5.564 1.132 14.874-2.078 7.92-4.924 18.766 4.196 26.366 3.798 3.165 9.753 4.132 17.995 5.472 14.874 2.418 36.509 5.95 52.508 24.818-5.947.91-12.037 1.383-18.235 1.383-46.939.001-87.663-27.094-107.371-66.462zm138.665 62.315c-19.083-26.644-46.772-31.164-63.64-33.906-4.856-.79-10.9-1.772-12.233-2.845-2.947-2.456-2.345-6.18-.269-14.093 2.249-8.569 5.328-20.304-6.087-27.914-18.927-12.619-47.852-1.139-61.258 5.466-4.593-12.067-7.292-25.058-7.732-38.612 44.121-3.701 63.569-15.502 64.943-39.374 1.066-18.544-29.225-30.66-42.132-34.965 21.831-30.033 57.228-49.599 97.113-49.599 3.091 0 6.156.118 9.189.348-15.698 10.059-35.174 27.567-27.47 49.434 5.939 16.859 20.067 19.501 29.415 21.25 1.089.204 2.15.402 3.169.616 3.582.753 5.84 2.279 6.713 4.534 1.169 3.019.11 7.603-2.634 11.406-4.544 6.297-16.094 32.62-13.06 48.113 2.21 11.282 9.106 20.132 19.945 25.593 9.575 4.823 21.415 6.765 33.792 6.765 19.116-.001 39.491-4.636 54.767-10.438-.238.741-.454 1.49-.649 2.247-13.056 36.954-43.729 65.657-81.882 75.974zm108.223-104.149c.321-3.858.493-7.758.493-11.698 0-29.266-9.032-56.459-24.446-78.951l5.61-64.134c.808-9.237 8.976-16.1 18.218-15.287 9.237.808 16.095 8.98 15.287 18.218l-11.314 129.331c-.232 2.649.6 5.281 2.313 7.316 1.712 2.035 4.163 3.304 6.813 3.528l1.496.126c5.331.458 10.092-3.387 10.77-8.706l13.896-108.946c1.246-9.258 9.797-15.771 19.051-14.53 4.544.612 8.56 2.971 11.306 6.643s3.875 8.19 3.179 12.721l-19.239 125.153-.14.567-37.056-3.242c-5.578-.489-11.078.176-16.237 1.891z" fill="#3c122c"/><path d="m188.904 189.188c-2.623 0-5.241-1.024-7.205-3.061-3.836-3.979-3.721-10.314.258-14.151 16.986-16.379 35.224-22.581 35.992-22.837 5.241-1.747 10.91 1.086 12.658 6.329 1.744 5.233-1.075 10.889-6.299 12.648-.267.092-14.935 5.228-28.458 18.268-1.942 1.873-4.446 2.804-6.946 2.804z" fill="#fff"/><g fill="#3c122c"><path d="m290.47 342.247c-3.316 0-6.004-2.689-6.004-6.004v-12.109c0-3.316 2.688-6.005 6.004-6.005s6.004 2.689 6.004 6.005v12.109c.001 3.316-2.688 6.004-6.004 6.004z"/><path d="m340.755 275.08c-3.316 0-6.004-2.689-6.004-6.004v-12.109c0-3.316 2.688-6.004 6.004-6.004s6.004 2.688 6.004 6.004v12.109c0 3.315-2.688 6.004-6.004 6.004z"/><path d="m320.237 251.028c-3.316 0-6.005-2.688-6.005-6.004v-12.109c0-3.316 2.689-6.005 6.005-6.005s6.004 2.689 6.004 6.005v12.109c0 3.316-2.689 6.004-6.004 6.004z"/></g></g></g></svg>